<svg xmlns="http://www.w3.org/2000/svg" width="18.38" height="21.241" viewBox="0 0 18.38 21.241">
  <g id="Group_3" data-name="Group 3" transform="translate(-4.31)">
    <path id="Path_3" data-name="Path 3" d="M8.289,7.959a3.983,3.983,0,1,1,2.838-1.191.322.322,0,1,1-.458-.451A3.335,3.335,0,1,0,4.951,3.983a3.336,3.336,0,0,0,4.268,3.2A.322.322,0,0,1,9.4,7.8,4.005,4.005,0,0,1,8.289,7.959ZM14.5,10.8a.322.322,0,0,1-.3-.2L13.527,8.9a.622.622,0,0,0-1.155.461.322.322,0,1,1-.6.239,1.269,1.269,0,0,1,.707-1.646,1.27,1.27,0,0,1,1.646.7l.677,1.693a.32.32,0,0,1-.179.418A.274.274,0,0,1,14.5,10.8Z"/>
    <path id="Path_4" data-name="Path 4" d="M35.3,27.463a.322.322,0,0,1-.3-.2l-.458-1.148a.468.468,0,0,0-.246-.252.447.447,0,0,0-.352,0,.468.468,0,0,0-.252.246.461.461,0,0,0,0,.352.322.322,0,0,1-.6.239,1.1,1.1,0,0,1,2.048-.82l.458,1.148a.32.32,0,0,1-.179.418A.3.3,0,0,1,35.3,27.463Z" transform="translate(-19.175 -16.823)"/>
    <path id="Path_5" data-name="Path 5" d="M22.031,29.443a.316.316,0,0,1-.236-.1,6.745,6.745,0,0,0-5.4-1.888,1.2,1.2,0,0,1-.86-2.091,5.17,5.17,0,0,1,3.352-.79l-2.95-7.378a1.207,1.207,0,0,1,.013-.943,1.235,1.235,0,0,1,.677-.66,1.233,1.233,0,0,1,1.6.687l1.859,4.653a.322.322,0,1,1-.6.239l-1.859-4.653a.578.578,0,0,0-.315-.322.591.591,0,0,0-.451-.007.578.578,0,0,0-.322.315.591.591,0,0,0-.007.451l3.14,7.856a.317.317,0,0,1-.043.315.327.327,0,0,1-.3.123c-.023,0-2.383-.282-3.379.594a.543.543,0,0,0-.143.627.532.532,0,0,0,.538.342,7.443,7.443,0,0,1,5.762,1.935L27.2,26.712l-2.622-6.575a.46.46,0,0,0-.6-.256l-.09.037a.46.46,0,0,0-.256.6.322.322,0,0,1-.6.239,1.1,1.1,0,0,1,.614-1.434l.09-.037a1.1,1.1,0,0,1,1.434.614l2.745,6.867a.315.315,0,0,1,0,.246.32.32,0,0,1-.176.173L22.15,29.417A.311.311,0,0,1,22.031,29.443Z" transform="translate(-7.227 -10.356)"/>
    <path id="Path_6" data-name="Path 6" d="M36.145,21.241a.33.33,0,0,1-.126-.027.32.32,0,0,1-.173-.176l-.863-2.154a.322.322,0,0,1,.6-.239l.743,1.855,4.992-1.995-.743-1.855a.322.322,0,1,1,.6-.239l.863,2.154a.32.32,0,0,1-.179.418l-5.589,2.234A.306.306,0,0,1,36.145,21.241ZM39.188,7.959a3.979,3.979,0,1,1,3.979-3.979A3.984,3.984,0,0,1,39.188,7.959Zm0-7.315a3.335,3.335,0,1,0,3.335,3.335A3.34,3.34,0,0,0,39.188.644Z" transform="translate(-20.477)"/>
    <path id="Path_7" data-name="Path 7" d="M41.8,9.9a.32.32,0,0,1-.229-.548L45.058,5.86a.322.322,0,0,1,.455.455L42.024,9.8A.319.319,0,0,1,41.8,9.9Z" transform="translate(-24.83 -3.852)"/>
    <path id="Path_8" data-name="Path 8" d="M23.379,9.9A.321.321,0,0,1,23.15,9.8L19.662,6.314a.322.322,0,0,1,.455-.455l3.488,3.488a.32.32,0,0,1-.226.548ZM10.426,9.646a.33.33,0,0,1-.229-.093L8.78,8.136a.322.322,0,0,1,.455-.455l1.191,1.191,2.761-2.761a.322.322,0,0,1,.455.455l-2.99,2.99A.321.321,0,0,1,10.426,9.646Z" transform="translate(-2.923 -3.852)"/>
  </g>
</svg>
